# Blender v2.79 (sub 0) OBJ File: 'PastichGP_Level.blend'
# www.blender.org
mtllib ground.mtl
o Cube_Cube.001
v 0.205340 0.860235 317.472656
v 0.205340 2.860235 317.472656
v 0.205340 0.860235 -314.196838
v 0.205340 2.860235 -314.196838
v 18.781715 0.860235 317.472656
v 18.781715 2.860235 317.472656
v 18.781715 0.860235 -314.196838
v 18.781715 2.860235 -314.196838
v 1.137092 0.860235 -314.196838
v 1.137092 2.860235 -314.196838
v 1.137092 0.860235 317.472656
v 1.137092 2.860235 317.472656
v 17.839525 2.860235 -314.196838
v 17.839525 0.860235 317.472656
v 17.839525 0.860235 -314.196838
v 17.839525 2.860235 317.472656
v 0.205340 8.455049 317.472656
v 0.205340 8.455049 -314.196838
v 17.839525 8.455049 -314.196838
v 18.781715 8.455049 -314.196838
v 18.781715 8.455049 317.472656
v 1.137092 8.455049 317.472656
v 1.137092 8.455049 -314.196838
v 17.839525 8.455049 317.472656
v 0.205340 0.860235 315.552734
v 0.205340 2.860235 315.552734
v 18.781715 0.860235 315.552734
v 18.781715 2.860235 315.552734
v 1.137092 2.860235 315.552734
v 1.137092 0.860235 315.552734
v 17.839525 2.860235 315.552734
v 17.839525 0.860235 315.552734
v 0.205340 8.455049 315.552734
v 18.781715 8.455049 315.552734
v 1.137092 8.455049 315.552734
v 17.839525 8.455049 315.552734
v 0.205340 2.860235 -311.773193
v 18.781715 0.860235 -311.773193
v 0.205340 8.455049 -311.773193
v 0.205340 0.860235 -311.773193
v 18.781715 2.860235 -311.773193
v 1.137092 2.860235 -311.773193
v 1.137092 0.860235 -311.773193
v 17.839525 2.860235 -311.773193
v 17.839525 0.860235 -311.773193
v 18.781715 8.455049 -311.773193
v 1.137092 8.455049 -311.773193
v 17.839525 8.455049 -311.773193
v 17.839525 5.083085 317.472656
v 1.137092 5.083085 317.472656
v 1.137092 5.083085 315.552734
v 17.839525 5.083085 315.552734
v 1.137092 12.110742 -314.196838
v 17.839525 12.110742 -314.196838
v 1.137092 12.110742 -311.773193
v 17.839525 12.110742 -311.773193
vn -1.0000 0.0000 0.0000
vn 0.0000 0.0000 -1.0000
vn 1.0000 0.0000 0.0000
vn 0.0000 0.0000 1.0000
vn 0.0000 -1.0000 0.0000
vn 0.0000 1.0000 0.0000
usemtl None
s off
f 40//1 37//1 4//1 3//1
f 15//2 13//2 8//2 7//2
f 27//3 28//3 6//3 5//3
f 11//4 12//4 2//4 1//4
f 32//5 27//5 5//5 14//5
f 41//3 8//3 20//3 46//3
f 31//2 29//2 51//2 52//2
f 25//5 30//5 11//5 1//5
f 14//4 16//4 12//4 11//4
f 3//2 4//2 10//2 9//2
f 5//4 6//4 16//4 14//4
f 16//4 6//4 21//4 24//4
f 30//5 32//5 14//5 11//5
f 9//2 10//2 13//2 15//2
f 35//6 33//6 17//6 22//6
f 34//6 36//6 24//6 21//6
f 10//2 4//2 18//2 23//2
f 26//1 2//1 17//1 33//1
f 2//4 12//4 22//4 17//4
f 42//3 10//3 23//3 47//3
f 8//2 13//2 19//2 20//2
f 31//1 16//1 24//1 36//1
f 44//1 31//1 36//1 48//1
f 12//3 29//3 35//3 22//3
f 37//1 26//1 33//1 39//1
f 46//6 48//6 36//6 34//6
f 47//6 39//6 33//6 35//6
f 43//5 45//5 32//5 30//5
f 40//5 43//5 30//5 25//5
f 44//6 42//6 29//6 31//6
f 6//3 28//3 34//3 21//3
f 45//5 38//5 27//5 32//5
f 38//3 41//3 28//3 27//3
f 1//1 2//1 26//1 25//1
f 7//3 8//3 41//3 38//3
f 15//5 7//5 38//5 45//5
f 13//2 10//2 53//2 54//2
f 3//5 9//5 43//5 40//5
f 9//5 15//5 45//5 43//5
f 23//6 18//6 39//6 47//6
f 20//6 19//6 48//6 46//6
f 4//1 37//1 39//1 18//1
f 13//1 44//1 48//1 19//1
f 29//3 42//3 47//3 35//3
f 28//3 41//3 46//3 34//3
f 25//1 26//1 37//1 40//1
f 52//6 51//6 50//6 49//6
f 12//4 16//4 49//4 50//4
f 29//1 12//1 50//1 51//1
f 16//3 31//3 52//3 49//3
f 54//6 53//6 55//6 56//6
f 44//3 13//3 54//3 56//3
f 10//1 42//1 55//1 53//1
f 42//4 44//4 56//4 55//4
