# Blender v2.79 (sub 0) OBJ File: 'PastichGP_Level.blend'
# www.blender.org
mtllib small_obstacle.mtl
o Grid.001
v 0.259162 15.483636 -11.652469
v 1.451968 15.483636 -11.652469
v 2.644776 15.483636 -11.652469
v 3.837583 15.483636 -11.652469
v 5.709188 15.483636 -11.652469
v 7.930009 15.483636 -11.652469
v 9.801617 15.483636 -11.652469
v 0.259162 15.483636 -12.845276
v 1.451968 15.483636 -12.845276
v 2.644776 15.483636 -12.845276
v 3.837583 15.483636 -12.845276
v 5.709188 15.483636 -12.845276
v 7.930009 15.483636 -12.845276
v 9.801617 15.483636 -12.845276
v 1.451968 19.052532 -11.652469
v 0.259162 19.052532 -11.652469
v 2.644776 19.052532 -11.652469
v 3.837583 19.052532 -11.652469
v 5.709188 19.052532 -11.652469
v 6.223196 19.052532 -11.652469
v 7.416002 19.052532 -11.652469
v 7.930009 19.052532 -11.652469
v 9.801617 19.052532 -11.652469
v 0.259162 19.052532 -12.845276
v 1.451968 19.052532 -12.845276
v 2.644776 19.052532 -12.845276
v 3.837583 19.052532 -12.845276
v 5.709188 19.052532 -12.845276
v 6.223196 19.052532 -12.845276
v 7.416002 19.052532 -12.845276
v 7.930009 19.052532 -12.845276
v 9.801617 19.052532 -12.845276
v 2.644776 16.901525 -12.845276
v 9.801617 16.901525 -11.652469
v 0.259162 16.901525 -11.652469
v 1.451968 16.901525 -11.652469
v 9.801617 16.901525 -12.845276
v 7.930009 16.901525 -12.845276
v 1.451968 16.901525 -12.845276
v 0.259162 16.901525 -12.845276
v 7.416002 16.901525 -11.652469
v 7.930009 16.901525 -11.652469
v 2.644776 16.901525 -11.652469
v 3.837583 16.901525 -12.845276
v 3.837583 16.901525 -11.652469
v 5.709188 16.901525 -12.845276
v 5.709188 16.901525 -11.652469
v 6.223196 16.901525 -12.845276
v 6.223196 16.901525 -11.652469
v 7.416002 16.901525 -12.845276
v 18.972826 16.901525 -11.652469
v 18.972826 19.052532 -11.652469
v 18.972826 16.901525 -12.845276
v 18.972826 15.483636 -12.845276
v 18.972826 19.052532 -12.845276
v 18.972826 15.483636 -11.652469
vn 0.0000 0.0000 1.0000
vn 0.0000 0.0000 -1.0000
vn 0.0000 1.0000 0.0000
vn -1.0000 0.0000 0.0000
vn 0.0000 -1.0000 0.0000
vn 1.0000 0.0000 0.0000
usemtl None
s off
f 43//1 45//1 18//1 17//1
f 44//2 33//2 26//2 27//2
f 36//1 43//1 17//1 15//1
f 33//2 39//2 25//2 26//2
f 42//1 34//1 23//1 22//1
f 35//1 36//1 15//1 16//1
f 37//2 38//2 31//2 32//2
f 39//2 40//2 24//2 25//2
f 41//1 42//1 22//1 21//1
f 16//3 15//3 25//3 24//3
f 15//3 17//3 26//3 25//3
f 17//3 18//3 27//3 26//3
f 18//3 19//3 28//3 27//3
f 19//3 20//3 29//3 28//3
f 20//3 21//3 30//3 29//3
f 21//3 22//3 31//3 30//3
f 22//3 23//3 32//3 31//3
f 46//2 44//2 27//2 28//2
f 45//1 47//1 19//1 18//1
f 48//2 46//2 28//2 29//2
f 47//1 49//1 20//1 19//1
f 50//2 48//2 29//2 30//2
f 49//1 41//1 21//1 20//1
f 40//4 35//4 16//4 24//4
f 38//2 50//2 30//2 31//2
f 38//4 13//4 6//4 42//4
f 8//4 1//4 35//4 40//4
f 49//5 47//5 46//5 48//5
f 41//5 49//5 48//5 50//5
f 4//1 5//1 47//1 45//1
f 12//2 11//2 44//2 46//2
f 37//2 32//2 55//2 53//2
f 42//5 41//5 50//5 38//5
f 9//2 8//2 40//2 39//2
f 14//2 13//2 38//2 37//2
f 1//1 2//1 36//1 35//1
f 6//1 7//1 34//1 42//1
f 10//2 9//2 39//2 33//2
f 2//1 3//1 43//1 36//1
f 14//2 37//2 53//2 54//2
f 11//2 10//2 33//2 44//2
f 3//1 4//1 45//1 43//1
f 46//6 47//6 5//6 12//6
f 53//6 51//6 56//6 54//6
f 51//6 53//6 55//6 52//6
f 23//1 34//1 51//1 52//1
f 7//5 14//5 54//5 56//5
f 32//3 23//3 52//3 55//3
f 34//1 7//1 56//1 51//1
