# Blender v2.79 (sub 0) OBJ File: 'PastichGP_Level.blend'
# www.blender.org
mtllib small.mtl
o Cube.002_Cube.004
v 22.806866 0.265130 -0.299048
v 22.806866 0.466130 -0.098048
v 22.605865 0.466130 -0.299048
v 22.806866 0.279394 -0.188764
v 22.696608 0.279384 -0.299048
v 22.696751 0.295793 -0.188933
v 22.696583 0.466130 -0.112311
v 22.806866 0.355872 -0.112301
v 22.696751 0.356014 -0.128710
v 22.620129 0.355846 -0.299048
v 22.620119 0.466130 -0.188790
v 22.636528 0.356015 -0.188932
v 22.806866 3.754803 -0.098048
v 22.806866 3.955802 -0.299048
v 22.605865 3.754803 -0.299048
v 22.806866 3.865087 -0.112311
v 22.696608 3.754802 -0.112301
v 22.696751 3.864918 -0.128710
v 22.696583 3.941539 -0.299048
v 22.806866 3.941549 -0.188790
v 22.696751 3.925140 -0.188932
v 22.620129 3.754802 -0.188764
v 22.620119 3.865061 -0.299048
v 22.636528 3.864918 -0.188933
v 22.806866 0.265130 -0.814691
v 22.605865 0.466130 -0.814691
v 22.806866 0.466130 -1.015691
v 22.696583 0.279394 -0.814691
v 22.806866 0.279384 -0.924949
v 22.696751 0.295793 -0.924807
v 22.620129 0.466130 -0.924975
v 22.620119 0.355872 -0.814691
v 22.636528 0.356014 -0.924806
v 22.806866 0.355846 -1.001428
v 22.696608 0.466130 -1.001438
v 22.696751 0.356015 -0.985029
v 22.806866 3.955802 -0.814691
v 22.806866 3.754803 -1.015691
v 22.605865 3.754803 -0.814691
v 22.806866 3.941539 -0.924975
v 22.696608 3.941549 -0.814691
v 22.696751 3.925140 -0.924806
v 22.696583 3.754802 -1.001428
v 22.806866 3.865061 -1.001438
v 22.696751 3.864918 -0.985029
v 22.620129 3.865087 -0.814691
v 22.620119 3.754802 -0.924950
v 22.636528 3.864918 -0.924807
v 40.794968 0.265130 -0.299048
v 40.995968 0.466130 -0.299048
v 40.794968 0.466130 -0.098048
v 40.905251 0.279394 -0.299048
v 40.794968 0.279384 -0.188790
v 40.905083 0.295793 -0.188932
v 40.981705 0.466130 -0.188764
v 40.981712 0.355872 -0.299048
v 40.965305 0.356014 -0.188933
v 40.794968 0.355846 -0.112311
v 40.905228 0.466130 -0.112301
v 40.905083 0.356015 -0.128710
v 40.794968 3.955802 -0.299048
v 40.794968 3.754803 -0.098048
v 40.995968 3.754803 -0.299048
v 40.794968 3.941539 -0.188764
v 40.905228 3.941549 -0.299048
v 40.905083 3.925140 -0.188933
v 40.905251 3.754802 -0.112311
v 40.794968 3.865061 -0.112301
v 40.905083 3.864918 -0.128710
v 40.981705 3.865087 -0.299048
v 40.981712 3.754802 -0.188790
v 40.965305 3.864918 -0.188932
v 40.794968 0.466130 -1.015691
v 40.995968 0.466130 -0.814691
v 40.794968 0.265130 -0.814691
v 40.905251 0.466130 -1.001428
v 40.794968 0.355872 -1.001438
v 40.905083 0.356014 -0.985029
v 40.981705 0.355846 -0.814691
v 40.981712 0.466130 -0.924950
v 40.965305 0.356015 -0.924807
v 40.794968 0.279394 -0.924975
v 40.905228 0.279384 -0.814691
v 40.905083 0.295793 -0.924806
v 40.794968 3.955802 -0.814691
v 40.995968 3.754803 -0.814691
v 40.794968 3.754803 -1.015691
v 40.905251 3.941539 -0.814691
v 40.794968 3.941549 -0.924949
v 40.905083 3.925140 -0.924807
v 40.981705 3.754802 -0.924975
v 40.981712 3.865061 -0.814691
v 40.965305 3.864918 -0.924806
v 40.794968 3.865087 -1.001428
v 40.905228 3.754802 -1.001438
v 40.905083 3.864918 -0.985029
v 38.579304 3.248680 -0.814691
v 38.981304 3.449680 -1.015691
v 38.780304 3.047680 -0.814691
v 38.703552 3.266765 -0.920854
v 38.686871 3.229868 -0.814691
v 38.749756 3.248285 -0.922208
v 38.875141 3.325431 -0.997605
v 38.857090 3.343545 -0.997613
v 38.811333 3.279708 -0.981178
v 38.761486 3.155274 -0.814691
v 38.798382 3.171893 -0.920826
v 38.779907 3.218129 -0.922207
v 38.579304 3.248680 -0.299048
v 38.780304 3.047680 -0.299048
v 38.981304 3.449680 -0.098048
v 38.686897 3.229861 -0.299048
v 38.703518 3.266758 -0.192913
v 38.749752 3.248283 -0.191532
v 38.798389 3.171928 -0.192885
v 38.761490 3.155247 -0.299048
v 38.779911 3.218131 -0.191531
v 38.857056 3.343517 -0.116134
v 38.875168 3.325467 -0.116126
v 38.811333 3.279709 -0.132561
v 35.351284 0.265130 -0.814691
v 35.351284 0.466130 -1.015691
v 35.552284 0.466130 -0.814691
v 35.351280 0.279394 -0.924975
v 35.461540 0.279384 -0.814691
v 35.461399 0.295793 -0.924806
v 35.461567 0.466130 -1.001428
v 35.351280 0.355872 -1.001438
v 35.461399 0.356014 -0.985029
v 35.538017 0.355846 -0.814691
v 35.538029 0.466130 -0.924950
v 35.521618 0.356015 -0.924807
v 35.351284 0.265130 -0.299048
v 35.552284 0.466130 -0.299048
v 35.351284 0.466130 -0.098048
v 35.461567 0.279394 -0.299048
v 35.351280 0.279384 -0.188790
v 35.461399 0.295793 -0.188932
v 35.538017 0.466130 -0.188764
v 35.538029 0.355872 -0.299048
v 35.521618 0.356014 -0.188933
v 35.351280 0.355846 -0.112311
v 35.461540 0.466130 -0.112301
v 35.461399 0.356015 -0.128710
v 35.753281 3.248680 -0.814691
v 35.552280 3.047680 -0.814691
v 35.351280 3.449680 -1.015691
v 35.645687 3.229861 -0.814691
v 35.629070 3.266758 -0.920826
v 35.582832 3.248283 -0.922208
v 35.534195 3.171928 -0.920854
v 35.571095 3.155247 -0.814691
v 35.552677 3.218131 -0.922208
v 35.475533 3.343517 -0.997605
v 35.457417 3.325466 -0.997613
v 35.521255 3.279709 -0.981178
v 35.753281 3.248680 -0.299048
v 35.351280 3.449680 -0.098048
v 35.552280 3.047680 -0.299048
v 35.629032 3.266765 -0.192885
v 35.645714 3.229868 -0.299048
v 35.582829 3.248285 -0.191531
v 35.457443 3.325431 -0.116134
v 35.475494 3.343545 -0.116126
v 35.521252 3.279708 -0.132561
v 35.571098 3.155273 -0.299048
v 35.534203 3.171892 -0.192913
v 35.552677 3.218129 -0.191532
v 38.981304 0.466130 -1.015691
v 38.981304 0.265130 -0.814691
v 38.780304 0.466130 -0.814691
v 38.981304 0.355846 -1.001428
v 38.871044 0.466130 -1.001438
v 38.871189 0.356015 -0.985029
v 38.871017 0.279394 -0.814691
v 38.981304 0.279384 -0.924949
v 38.871189 0.295793 -0.924807
v 38.794567 0.466130 -0.924975
v 38.794556 0.355872 -0.814691
v 38.810966 0.356014 -0.924806
v 38.981304 0.265130 -0.299048
v 38.981304 0.466130 -0.098048
v 38.780304 0.466130 -0.299048
v 38.981304 0.279394 -0.188764
v 38.871044 0.279384 -0.299048
v 38.871189 0.295793 -0.188933
v 38.871017 0.466130 -0.112311
v 38.981304 0.355872 -0.112301
v 38.871189 0.356014 -0.128710
v 38.794567 0.355846 -0.299048
v 38.794556 0.466130 -0.188790
v 38.810966 0.356015 -0.188932
vn 0.0000 -0.0000 1.0000
vn 0.0000 -1.0000 0.0000
vn 0.0000 1.0000 0.0000
vn -1.0000 -0.0000 0.0000
vn 0.0000 0.0000 -1.0000
vn 1.0000 0.0000 0.0000
vn -0.0884 -0.9921 0.0885
vn -0.0635 -0.8972 0.4370
vn -0.3996 -0.8250 0.3996
vn -0.4369 -0.8973 0.0635
vn -0.0635 -0.4369 0.8973
vn -0.3996 -0.3996 0.8250
vn -0.0885 -0.0884 0.9921
vn -0.4370 -0.0635 0.8972
vn -0.8973 -0.0635 0.4369
vn -0.8250 -0.3996 0.3996
vn -0.9921 -0.0885 0.0885
vn -0.8972 -0.4370 0.0635
vn -0.0885 0.0885 0.9921
vn -0.0635 0.4370 0.8972
vn -0.3996 0.3996 0.8250
vn -0.4369 0.0635 0.8973
vn -0.0635 0.8973 0.4369
vn -0.3996 0.8250 0.3996
vn -0.0885 0.9921 0.0885
vn -0.4370 0.8972 0.0635
vn -0.8973 0.4369 0.0635
vn -0.8250 0.3996 0.3996
vn -0.9921 0.0885 0.0885
vn -0.8972 0.0635 0.4370
vn -0.0885 -0.9921 -0.0885
vn -0.4370 -0.8972 -0.0635
vn -0.3996 -0.8250 -0.3996
vn -0.0635 -0.8973 -0.4369
vn -0.8973 -0.4369 -0.0635
vn -0.8250 -0.3996 -0.3996
vn -0.9921 -0.0885 -0.0885
vn -0.8972 -0.0635 -0.4370
vn -0.4369 -0.0635 -0.8973
vn -0.3996 -0.3996 -0.8250
vn -0.0884 -0.0885 -0.9921
vn -0.0635 -0.4370 -0.8972
vn -0.0884 0.9921 -0.0885
vn -0.0635 0.8972 -0.4370
vn -0.3996 0.8250 -0.3996
vn -0.4369 0.8973 -0.0635
vn -0.0635 0.4369 -0.8973
vn -0.3996 0.3996 -0.8250
vn -0.0885 0.0885 -0.9921
vn -0.4370 0.0635 -0.8972
vn -0.8973 0.0635 -0.4369
vn -0.8250 0.3996 -0.3996
vn -0.9921 0.0885 -0.0885
vn -0.8972 0.4370 -0.0635
vn 0.0885 -0.9921 0.0885
vn 0.4370 -0.8972 0.0635
vn 0.3996 -0.8250 0.3996
vn 0.0635 -0.8973 0.4369
vn 0.8973 -0.4369 0.0635
vn 0.8250 -0.3996 0.3996
vn 0.9921 -0.0885 0.0885
vn 0.8972 -0.0635 0.4370
vn 0.4369 -0.0635 0.8973
vn 0.3996 -0.3996 0.8250
vn 0.0885 -0.0885 0.9921
vn 0.0635 -0.4370 0.8972
vn 0.0885 0.9921 0.0885
vn 0.0635 0.8972 0.4370
vn 0.3996 0.8250 0.3996
vn 0.4369 0.8973 0.0635
vn 0.0635 0.4369 0.8973
vn 0.3996 0.3996 0.8250
vn 0.0885 0.0884 0.9921
vn 0.4370 0.0635 0.8972
vn 0.8973 0.0635 0.4369
vn 0.8250 0.3996 0.3996
vn 0.9921 0.0885 0.0885
vn 0.8972 0.4370 0.0635
vn 0.0885 -0.0884 -0.9921
vn 0.4370 -0.0635 -0.8972
vn 0.3996 -0.3996 -0.8250
vn 0.0635 -0.4369 -0.8973
vn 0.8973 -0.0635 -0.4369
vn 0.8250 -0.3996 -0.3996
vn 0.9921 -0.0885 -0.0885
vn 0.8972 -0.4370 -0.0635
vn 0.4369 -0.8973 -0.0635
vn 0.3996 -0.8250 -0.3996
vn 0.0885 -0.9921 -0.0885
vn 0.0635 -0.8972 -0.4370
vn 0.0885 0.9921 -0.0885
vn 0.4370 0.8972 -0.0635
vn 0.3996 0.8250 -0.3996
vn 0.0635 0.8973 -0.4369
vn 0.8973 0.4369 -0.0635
vn 0.8250 0.3996 -0.3996
vn 0.9921 0.0885 -0.0885
vn 0.8972 0.0635 -0.4370
vn 0.4369 0.0635 -0.8973
vn 0.3996 0.3996 -0.8250
vn 0.0884 0.0885 -0.9921
vn 0.0635 0.4370 -0.8972
vn -0.0937 -0.9852 -0.1434
vn -0.1575 -0.7941 -0.5871
vn -0.5043 -0.5252 -0.6855
vn -0.4348 -0.8734 -0.2194
vn -0.0841 -0.1939 -0.9774
vn -0.3240 -0.3240 -0.8889
vn -0.0771 -0.0857 -0.9933
vn -0.1864 -0.0836 -0.9789
vn -0.7960 -0.1567 -0.5847
vn -0.5251 -0.5043 -0.6855
vn -0.9867 -0.0932 -0.1328
vn -0.8734 -0.4348 -0.2194
vn -0.0937 -0.9852 0.1434
vn -0.4348 -0.8734 0.2194
vn -0.5043 -0.5251 0.6855
vn -0.1575 -0.7941 0.5870
vn -0.8734 -0.4348 0.2194
vn -0.5251 -0.5043 0.6855
vn -0.9867 -0.0932 0.1328
vn -0.7959 -0.1567 0.5848
vn -0.1864 -0.0836 0.9789
vn -0.3240 -0.3240 0.8889
vn -0.0771 -0.0857 0.9933
vn -0.0841 -0.1939 0.9774
vn 0.0952 -0.0882 -0.9915
vn 0.4420 -0.0627 -0.8948
vn 0.8953 -0.0627 -0.4411
vn 0.9916 -0.0882 -0.0949
vn 0.9916 -0.0882 0.0949
vn 0.8952 -0.0626 0.4411
vn 0.4419 -0.0627 0.8949
vn 0.0952 -0.0882 0.9915
vn 0.0937 -0.9852 -0.1434
vn 0.4348 -0.8734 -0.2194
vn 0.5043 -0.5251 -0.6855
vn 0.1575 -0.7941 -0.5870
vn 0.8734 -0.4348 -0.2194
vn 0.5252 -0.5043 -0.6855
vn 0.9867 -0.0933 -0.1328
vn 0.7959 -0.1567 -0.5848
vn 0.1864 -0.0836 -0.9789
vn 0.3240 -0.3240 -0.8889
vn 0.0771 -0.0857 -0.9933
vn 0.0841 -0.1939 -0.9774
vn 0.0937 -0.9852 0.1435
vn 0.1575 -0.7940 0.5871
vn 0.5043 -0.5252 0.6855
vn 0.4348 -0.8734 0.2194
vn 0.0841 -0.1939 0.9774
vn 0.3240 -0.3240 0.8889
vn 0.0771 -0.0857 0.9933
vn 0.1864 -0.0836 0.9789
vn 0.7960 -0.1567 0.5847
vn 0.5251 -0.5043 0.6855
vn 0.9867 -0.0933 0.1328
vn 0.8734 -0.4348 0.2194
vn -0.0952 -0.0882 -0.9915
vn -0.4419 -0.0627 -0.8949
vn -0.9916 -0.0882 -0.0949
vn -0.8953 -0.0626 -0.4411
vn -0.0952 -0.0882 0.9915
vn -0.4420 -0.0627 0.8948
vn -0.8953 -0.0627 0.4411
vn -0.9916 -0.0882 0.0949
usemtl None
s 1
f 51//1 62//1 13//1 2//1 135//1 158//1 111//1 182//1
f 181//2 170//2 75//2 49//2
f 97//2 109//2 157//2 145//2
f 85//3 37//3 14//3 61//3
f 3//4 15//4 39//4 26//4
f 27//5 38//5 87//5 73//5 169//5 98//5 147//5 122//5
f 146//6 159//6 134//6 123//6
f 74//6 86//6 63//6 50//6
f 110//4 99//4 171//4 183//4
f 1//7 4//8 6//9 5//10
f 4//8 8//11 9//12 6//9
f 2//13 7//14 9//12 8//11
f 7//14 11//15 12//16 9//12
f 3//17 10//18 12//16 11//15
f 10//18 5//10 6//9 12//16
f 6//9 9//12 12//16
f 13//19 16//20 18//21 17//22
f 16//20 20//23 21//24 18//21
f 14//25 19//26 21//24 20//23
f 19//26 23//27 24//28 21//24
f 15//29 22//30 24//28 23//27
f 22//30 17//22 18//21 24//28
f 18//21 21//24 24//28
f 25//31 28//32 30//33 29//34
f 28//32 32//35 33//36 30//33
f 26//37 31//38 33//36 32//35
f 31//38 35//39 36//40 33//36
f 27//41 34//42 36//40 35//39
f 34//42 29//34 30//33 36//40
f 30//33 33//36 36//40
f 37//43 40//44 42//45 41//46
f 40//44 44//47 45//48 42//45
f 38//49 43//50 45//48 44//47
f 43//50 47//51 48//52 45//48
f 39//53 46//54 48//52 47//51
f 46//54 41//46 42//45 48//52
f 42//45 45//48 48//52
f 49//55 52//56 54//57 53//58
f 52//56 56//59 57//60 54//57
f 50//61 55//62 57//60 56//59
f 55//62 59//63 60//64 57//60
f 51//65 58//66 60//64 59//63
f 58//66 53//58 54//57 60//64
f 54//57 57//60 60//64
f 61//67 64//68 66//69 65//70
f 64//68 68//71 69//72 66//69
f 62//73 67//74 69//72 68//71
f 67//74 71//75 72//76 69//72
f 63//77 70//78 72//76 71//75
f 70//78 65//70 66//69 72//76
f 66//69 69//72 72//76
f 73//79 76//80 78//81 77//82
f 76//80 80//83 81//84 78//81
f 74//85 79//86 81//84 80//83
f 79//86 83//87 84//88 81//84
f 75//89 82//90 84//88 83//87
f 82//90 77//82 78//81 84//88
f 78//81 81//84 84//88
f 85//91 88//92 90//93 89//94
f 88//92 92//95 93//96 90//93
f 86//97 91//98 93//96 92//95
f 91//98 95//99 96//100 93//96
f 87//101 94//102 96//100 95//99
f 94//102 89//94 90//93 96//100
f 90//93 93//96 96//100
f 97//103 100//104 102//105 101//106
f 100//104 104//107 105//108 102//105
f 98//109 103//110 105//108 104//107
f 103//110 107//111 108//112 105//108
f 99//113 106//114 108//112 107//111
f 106//114 101//106 102//105 108//112
f 102//105 105//108 108//112
f 109//115 112//116 114//117 113//118
f 112//116 116//119 117//120 114//117
f 110//121 115//122 117//120 116//119
f 115//122 119//123 120//124 117//120
f 111//125 118//126 120//124 119//123
f 118//126 113//118 114//117 120//124
f 114//117 117//120 120//124
f 121//89 124//90 126//88 125//87
f 124//90 128//82 129//81 126//88
f 122//127 127//128 129//81 128//82
f 127//128 131//129 132//84 129//81
f 123//130 130//86 132//84 131//129
f 130//86 125//87 126//88 132//84
f 126//88 129//81 132//84
f 133//55 136//56 138//57 137//58
f 136//56 140//59 141//60 138//57
f 134//131 139//132 141//60 140//59
f 139//132 143//133 144//64 141//60
f 135//134 142//66 144//64 143//133
f 142//66 137//58 138//57 144//64
f 138//57 141//60 144//64
f 145//135 148//136 150//137 149//138
f 148//136 152//139 153//140 150//137
f 146//141 151//142 153//140 152//139
f 151//142 155//143 156//144 153//140
f 147//145 154//146 156//144 155//143
f 154//146 149//138 150//137 156//144
f 150//137 153//140 156//144
f 157//147 160//148 162//149 161//150
f 160//148 164//151 165//152 162//149
f 158//153 163//154 165//152 164//151
f 163//154 167//155 168//156 165//152
f 159//157 166//158 168//156 167//155
f 166//158 161//150 162//149 168//156
f 162//149 165//152 168//156
f 169//159 172//42 174//40 173//160
f 172//42 176//34 177//33 174//40
f 170//31 175//32 177//33 176//34
f 175//32 179//35 180//36 177//33
f 171//161 178//162 180//36 179//35
f 178//162 173//160 174//40 180//36
f 174//40 177//33 180//36
f 181//7 184//8 186//9 185//10
f 184//8 188//11 189//12 186//9
f 182//163 187//164 189//12 188//11
f 187//164 191//165 192//16 189//12
f 183//166 190//18 192//16 191//165
f 190//18 185//10 186//9 192//16
f 186//9 189//12 192//16
f 25//31 1//7 5//10 28//32
f 28//32 5//10 10//18 32//35
f 32//35 10//18 3//17 26//37
f 2//13 13//19 17//22 7//14
f 7//14 17//22 22//30 11//15
f 11//15 22//30 15//29 3//17
f 14//25 37//43 41//46 19//26
f 19//26 41//46 46//54 23//27
f 23//27 46//54 39//53 15//29
f 38//49 27//41 35//39 43//50
f 43//50 35//39 31//38 47//51
f 47//51 31//38 26//37 39//53
f 121//89 25//31 29//34 124//90
f 124//90 29//34 34//42 128//82
f 128//82 34//42 27//41 122//127
f 37//43 85//91 89//94 40//44
f 40//44 89//94 94//102 44//47
f 44//47 94//102 87//101 38//49
f 86//97 74//85 80//83 91//98
f 91//98 80//83 76//80 95//99
f 95//99 76//80 73//79 87//101
f 49//55 75//89 83//87 52//56
f 52//56 83//87 79//86 56//59
f 56//59 79//86 74//85 50//61
f 85//91 61//67 65//70 88//92
f 88//92 65//70 70//78 92//95
f 92//95 70//78 63//77 86//97
f 62//73 51//65 59//63 67//74
f 67//74 59//63 55//62 71//75
f 71//75 55//62 50//61 63//77
f 181//7 49//55 53//58 184//8
f 184//8 53//58 58//66 188//11
f 188//11 58//66 51//65 182//163
f 61//67 14//25 20//23 64//68
f 64//68 20//23 16//20 68//71
f 68//71 16//20 13//19 62//73
f 147//145 98//109 104//107 154//146
f 154//146 104//107 100//104 149//138
f 149//138 100//104 97//103 145//135
f 111//125 158//153 164//151 118//126
f 118//126 164//151 160//148 113//118
f 113//118 160//148 157//147 109//115
f 146//141 123//130 131//129 151//142
f 151//142 131//129 127//128 155//143
f 155//143 127//128 122//127 147//145
f 133//55 121//89 125//87 136//56
f 136//56 125//87 130//86 140//59
f 140//59 130//86 123//130 134//131
f 158//153 135//134 143//133 163//154
f 163//154 143//133 139//132 167//155
f 167//155 139//132 134//131 159//157
f 98//109 169//159 173//160 103//110
f 103//110 173//160 178//162 107//111
f 107//111 178//162 171//161 99//113
f 110//121 183//166 191//165 115//122
f 115//122 191//165 187//164 119//123
f 119//123 187//164 182//163 111//125
f 183//166 171//161 179//35 190//18
f 190//18 179//35 175//32 185//10
f 185//10 175//32 170//31 181//7
f 159//157 146//141 152//139 166//158
f 166//158 152//139 148//136 161//150
f 161//150 148//136 145//135 157//147
f 1//7 133//55 137//58 4//8
f 4//8 137//58 142//66 8//11
f 8//11 142//66 135//134 2//13
f 99//113 110//121 116//119 106//114
f 106//114 116//119 112//116 101//106
f 101//106 112//116 109//115 97//103
f 75//89 170//31 176//34 82//90
f 82//90 176//34 172//42 77//82
f 77//82 172//42 169//159 73//79
f 25//2 121//2 133//2 1//2
